<?xml version="1.0" encoding="UTF-8"?>
<svg xmlns="http://www.w3.org/2000/svg" viewBox="0 0 250 250" width="250px" height="250px">
<g id="surface142714354">
<path style=" stroke:none;fill-rule:nonzero;fill:rgb(50.196081%,56.862748%,58.823532%);fill-opacity:1;" d="M 25 20 C 16.730469 20 10 26.730469 10 35 L 10 65 L 240 65 L 240 55 C 240 46.730469 233.269531 40 225 40 L 90.222656 40.03125 C 88.828125 39.523438 85.945312 34.929688 84.394531 32.460938 C 80.558594 26.339844 76.585938 20 70 20 Z M 15 75 C 12.238281 75 10 77.238281 10 80 L 10 215 C 10 223.285156 16.714844 230 25 230 L 225 230 C 233.285156 230 240 223.285156 240 215 L 240 80 C 240 77.238281 237.761719 75 235 75 Z M 15 75 "/>
</g>
</svg>
