<svg width="600" height="500" viewBox="0 0 510 311" fill="none" xmlns="http://www.w3.org/2000/svg">
    <path d="M299.54 242.661H209.182C209.182 242.661 212.929 302.884 195.037 302.884C200.761 302.884 307.96 302.884 313.685 302.884C295.794 302.884 299.54 242.661 299.54 242.661Z" fill="#CCE9FF"/>
    <path opacity="0.65" d="M208.157 278.863L299.251 259.55C299.084 249.999 299.54 242.661 299.54 242.661H209.182C209.182 242.661 210.388 262.078 208.157 278.863Z" fill="#6695F2"/>
    <path d="M423.357 260.818H85.3654C78.5635 260.818 73.0498 255.049 73.0498 247.932V24.7239C73.0498 17.6067 78.5635 11.8376 85.3654 11.8376H423.358C430.16 11.8376 435.673 17.6067 435.673 24.7239V247.932C435.673 255.049 430.159 260.818 423.357 260.818Z" fill="#CCE9FF"/>
    <path d="M420.036 251.993H88.6864C85.6745 251.993 83.2325 249.438 83.2325 246.287V26.3686C83.2325 23.2172 85.6745 20.6621 88.6864 20.6621H420.037C423.049 20.6621 425.491 23.2172 425.491 26.3686V246.288C425.491 249.439 423.049 251.993 420.036 251.993Z" fill="white" stroke="#2A94F5" stroke-miterlimit="10"/>
    <g opacity="0.75">
        <g opacity="0.75">
            <path opacity="0.55" d="M152.381 135.184H108.425C105.59 135.184 103.291 132.78 103.291 129.813V83.8195C103.291 80.8533 105.59 78.4484 108.425 78.4484H152.381C155.215 78.4484 157.514 80.8533 157.514 83.8195V129.813C157.514 132.78 155.215 135.184 152.381 135.184Z" stroke="#B3E0FF" stroke-miterlimit="10" stroke-linejoin="round"/>
            <g opacity="0.75">
                <path opacity="0.75" d="M125.564 94.7186L112.471 121.199H138.656L125.564 94.7186Z" stroke="#B3E0FF" stroke-miterlimit="10" stroke-linejoin="round"/>
                <path opacity="0.75" d="M139.544 103.42L136.395 109.789L142.036 121.199H148.334L139.544 103.42Z" stroke="#B3E0FF" stroke-miterlimit="10" stroke-linejoin="round"/>
                <path opacity="0.75" d="M146.545 98.4621C146.545 100.046 145.322 101.33 143.813 101.33C142.305 101.33 141.082 100.046 141.082 98.4621C141.082 96.8782 142.305 95.5947 143.813 95.5947C145.322 95.5938 146.545 96.8782 146.545 98.4621Z" stroke="#B3E0FF" stroke-miterlimit="10" stroke-linejoin="round"/>
            </g>
        </g>
        <g opacity="0.75">
            <path opacity="0.55" d="M235.324 135.184H191.368C188.534 135.184 186.235 132.78 186.235 129.813V83.8195C186.235 80.8533 188.534 78.4484 191.368 78.4484H235.324C238.159 78.4484 240.458 80.8533 240.458 83.8195V129.813C240.458 132.78 238.159 135.184 235.324 135.184Z" stroke="#B3E0FF" stroke-miterlimit="10" stroke-linejoin="round"/>
            <g opacity="0.75">
                <path opacity="0.75" d="M208.508 94.7186L195.415 121.199H221.6L208.508 94.7186Z" stroke="#B3E0FF" stroke-miterlimit="10" stroke-linejoin="round"/>
                <path opacity="0.75" d="M222.487 103.42L219.339 109.789L224.979 121.199H231.278L222.487 103.42Z" stroke="#B3E0FF" stroke-miterlimit="10" stroke-linejoin="round"/>
                <path opacity="0.75" d="M229.489 98.4621C229.489 100.046 228.266 101.33 226.757 101.33C225.248 101.33 224.026 100.046 224.026 98.4621C224.026 96.8782 225.248 95.5946 226.757 95.5946C228.266 95.5938 229.489 96.8782 229.489 98.4621Z" stroke="#B3E0FF" stroke-miterlimit="10" stroke-linejoin="round"/>
            </g>
        </g>
        <g opacity="0.75">
            <path opacity="0.55" d="M318.268 135.184H274.312C271.477 135.184 269.179 132.78 269.179 129.813V83.8195C269.179 80.8533 271.477 78.4484 274.312 78.4484H318.268C321.103 78.4484 323.402 80.8533 323.402 83.8195V129.813C323.402 132.78 321.103 135.184 318.268 135.184Z" stroke="#B3E0FF" stroke-miterlimit="10" stroke-linejoin="round"/>
            <g opacity="0.75">
                <path opacity="0.75" d="M291.452 94.7186L278.359 121.199H304.544L291.452 94.7186Z" stroke="#B3E0FF" stroke-miterlimit="10" stroke-linejoin="round"/>
                <path opacity="0.75" d="M305.431 103.42L302.282 109.789L307.923 121.199H314.222L305.431 103.42Z" stroke="#B3E0FF" stroke-miterlimit="10" stroke-linejoin="round"/>
                <path opacity="0.75" d="M312.432 98.4621C312.432 100.046 311.21 101.33 309.701 101.33C308.192 101.33 306.97 100.046 306.97 98.4621C306.97 96.8782 308.192 95.5946 309.701 95.5946C311.21 95.5938 312.432 96.8782 312.432 98.4621Z" stroke="#B3E0FF" stroke-miterlimit="10" stroke-linejoin="round"/>
            </g>
        </g>
        <g opacity="0.75">
            <path opacity="0.55" d="M401.212 135.184H357.256C354.421 135.184 352.123 132.78 352.123 129.813V83.8195C352.123 80.8533 354.421 78.4484 357.256 78.4484H401.212C404.047 78.4484 406.345 80.8533 406.345 83.8195V129.813C406.345 132.78 404.047 135.184 401.212 135.184Z" stroke="#B3E0FF" stroke-miterlimit="10" stroke-linejoin="round"/>
            <g opacity="0.75">
                <path opacity="0.75" d="M374.396 94.7186L361.303 121.199H387.488L374.396 94.7186Z" stroke="#B3E0FF" stroke-miterlimit="10" stroke-linejoin="round"/>
                <path opacity="0.75" d="M388.375 103.42L385.226 109.789L390.867 121.199H397.165L388.375 103.42Z" stroke="#B3E0FF" stroke-miterlimit="10" stroke-linejoin="round"/>
                <path opacity="0.75" d="M395.376 98.4621C395.376 100.046 394.154 101.33 392.645 101.33C391.136 101.33 389.913 100.046 389.913 98.4621C389.913 96.8782 391.136 95.5946 392.645 95.5946C394.154 95.5938 395.376 96.8782 395.376 98.4621Z" stroke="#B3E0FF" stroke-miterlimit="10" stroke-linejoin="round"/>
            </g>
        </g>
    </g>
    <g opacity="0.75">
        <g opacity="0.75">
            <path opacity="0.55" d="M152.381 208.511H108.425C105.59 208.511 103.291 206.106 103.291 203.14V157.146C103.291 154.18 105.59 151.775 108.425 151.775H152.381C155.215 151.775 157.514 154.18 157.514 157.146V203.14C157.514 206.106 155.215 208.511 152.381 208.511Z" stroke="#B3E0FF" stroke-miterlimit="10" stroke-linejoin="round"/>
            <g opacity="0.75">
                <path opacity="0.75" d="M125.564 168.045L112.471 194.525H138.656L125.564 168.045Z" stroke="#B3E0FF" stroke-miterlimit="10" stroke-linejoin="round"/>
                <path opacity="0.75" d="M139.544 176.747L136.395 183.116L142.036 194.525H148.334L139.544 176.747Z" stroke="#B3E0FF" stroke-miterlimit="10" stroke-linejoin="round"/>
                <path opacity="0.75" d="M146.545 171.788C146.545 173.372 145.322 174.656 143.813 174.656C142.305 174.656 141.082 173.371 141.082 171.788C141.082 170.205 142.305 168.921 143.813 168.921C145.322 168.92 146.545 170.205 146.545 171.788Z" stroke="#B3E0FF" stroke-miterlimit="10" stroke-linejoin="round"/>
            </g>
        </g>
        <g opacity="0.75">
            <path opacity="0.55" d="M235.324 208.511H191.368C188.534 208.511 186.235 206.106 186.235 203.14V157.146C186.235 154.18 188.534 151.775 191.368 151.775H235.324C238.159 151.775 240.458 154.18 240.458 157.146V203.14C240.458 206.106 238.159 208.511 235.324 208.511Z" stroke="#B3E0FF" stroke-miterlimit="10" stroke-linejoin="round"/>
            <g opacity="0.75">
                <path opacity="0.75" d="M208.508 168.045L195.415 194.525H221.6L208.508 168.045Z" stroke="#B3E0FF" stroke-miterlimit="10" stroke-linejoin="round"/>
                <path opacity="0.75" d="M222.487 176.747L219.339 183.116L224.979 194.525H231.278L222.487 176.747Z" stroke="#B3E0FF" stroke-miterlimit="10" stroke-linejoin="round"/>
                <path opacity="0.75" d="M229.489 171.788C229.489 173.372 228.266 174.656 226.757 174.656C225.248 174.656 224.026 173.371 224.026 171.788C224.026 170.205 225.248 168.921 226.757 168.921C228.266 168.92 229.489 170.205 229.489 171.788Z" stroke="#B3E0FF" stroke-miterlimit="10" stroke-linejoin="round"/>
            </g>
        </g>
        <g opacity="0.75">
            <path opacity="0.55" d="M318.268 208.511H274.312C271.477 208.511 269.179 206.106 269.179 203.14V157.146C269.179 154.18 271.477 151.775 274.312 151.775H318.268C321.103 151.775 323.402 154.18 323.402 157.146V203.14C323.402 206.106 321.103 208.511 318.268 208.511Z" stroke="#B3E0FF" stroke-miterlimit="10" stroke-linejoin="round"/>
            <g opacity="0.75">
                <path opacity="0.75" d="M291.452 168.045L278.359 194.525H304.544L291.452 168.045Z" stroke="#B3E0FF" stroke-miterlimit="10" stroke-linejoin="round"/>
                <path opacity="0.75" d="M305.431 176.747L302.282 183.116L307.923 194.525H314.222L305.431 176.747Z" stroke="#B3E0FF" stroke-miterlimit="10" stroke-linejoin="round"/>
                <path opacity="0.75" d="M312.432 171.788C312.432 173.372 311.21 174.656 309.701 174.656C308.192 174.656 306.97 173.371 306.97 171.788C306.97 170.205 308.192 168.921 309.701 168.921C311.21 168.92 312.432 170.205 312.432 171.788Z" stroke="#B3E0FF" stroke-miterlimit="10" stroke-linejoin="round"/>
            </g>
        </g>
        <g opacity="0.75">
            <path opacity="0.55" d="M401.212 208.511H357.256C354.421 208.511 352.123 206.106 352.123 203.14V157.146C352.123 154.18 354.421 151.775 357.256 151.775H401.212C404.047 151.775 406.345 154.18 406.345 157.146V203.14C406.345 206.106 404.047 208.511 401.212 208.511Z" stroke="#B3E0FF" stroke-miterlimit="10" stroke-linejoin="round"/>
            <g opacity="0.75">
                <path opacity="0.75" d="M374.396 168.045L361.303 194.525H387.488L374.396 168.045Z" stroke="#B3E0FF" stroke-miterlimit="10" stroke-linejoin="round"/>
                <path opacity="0.75" d="M388.375 176.747L385.226 183.116L390.867 194.525H397.165L388.375 176.747Z" stroke="#B3E0FF" stroke-miterlimit="10" stroke-linejoin="round"/>
                <path opacity="0.75" d="M395.376 171.788C395.376 173.372 394.154 174.656 392.645 174.656C391.136 174.656 389.913 173.371 389.913 171.788C389.913 170.205 391.136 168.921 392.645 168.921C394.154 168.92 395.376 170.205 395.376 171.788Z" stroke="#B3E0FF" stroke-miterlimit="10" stroke-linejoin="round"/>
            </g>
        </g>
    </g>
    <path d="M323.403 227.073C325.352 227.073 326.932 228.726 326.932 230.765C326.932 232.803 325.351 234.457 323.403 234.457H186.234C184.285 234.457 182.706 232.803 182.706 230.765C182.706 228.726 184.286 227.073 186.234 227.073H323.403ZM323.403 226.215H186.234C183.837 226.215 181.886 228.256 181.886 230.765C181.886 233.274 183.837 235.315 186.234 235.315H323.403C325.801 235.315 327.752 233.274 327.752 230.765C327.752 228.256 325.801 226.215 323.403 226.215Z" fill="#2A94F5"/>
    <path d="M282.692 227.073H186.234C184.284 227.073 182.705 228.726 182.705 230.765C182.705 232.803 184.285 234.457 186.234 234.457H282.692V227.073Z" fill="#295CCE"/>
    <path d="M196.493 217.543L174.803 240.238L177.701 243.271L199.391 220.576L196.493 217.543Z" fill="#2B94F4"/>
    <path d="M207.268 217.543L185.578 240.238L188.477 243.271L210.167 220.576L207.268 217.543Z" fill="#2B94F4"/>
    <path d="M218.045 217.543L196.355 240.238L199.253 243.271L220.943 220.575L218.045 217.543Z" fill="#2B94F4"/>
    <path d="M228.82 217.543L207.13 240.238L210.029 243.271L231.719 220.576L228.82 217.543Z" fill="#2B94F4"/>
    <path d="M239.596 217.544L217.906 240.239L220.805 243.272L242.495 220.576L239.596 217.544Z" fill="#2B94F4"/>
    <path d="M250.373 217.544L228.683 240.239L231.581 243.272L253.271 220.576L250.373 217.544Z" fill="#2B94F4"/>
    <path d="M261.148 217.537L239.458 240.233L242.357 243.265L264.047 220.57L261.148 217.537Z" fill="#2B94F4"/>
    <path d="M271.924 217.538L250.234 240.233L253.132 243.266L274.822 220.571L271.924 217.538Z" fill="#2B94F4"/>
    <path d="M282.699 217.538L261.009 240.233L263.908 243.266L285.598 220.571L282.699 217.538Z" fill="#2B94F4"/>
    <path d="M293.475 217.538L271.785 240.233L274.684 243.265L296.374 220.57L293.475 217.538Z" fill="#2B94F4"/>
    <path d="M304.251 217.538L282.561 240.234L285.46 243.266L307.15 220.571L304.251 217.538Z" fill="#103BB2"/>
    <path d="M315.027 217.545L293.337 240.24L296.236 243.273L317.926 220.578L315.027 217.545Z" fill="#103BB2"/>
    <path d="M325.804 217.545L304.114 240.24L307.012 243.273L328.702 220.578L325.804 217.545Z" fill="#103BB2"/>
    <path d="M83.2317 48.9795H425.491" stroke="#2A94F5" stroke-miterlimit="10"/>
    <path opacity="0.45" d="M384.387 40.7513H148.595C145.364 40.7513 142.745 38.0108 142.745 34.6303C142.745 31.2498 145.364 28.5094 148.595 28.5094H384.387C387.617 28.5094 390.236 31.2498 390.236 34.6303C390.236 38.0108 387.617 40.7513 384.387 40.7513Z" fill="#89B5F4"/>
    <path d="M100.028 34.9323C100.028 36.7359 98.6305 38.1979 96.9069 38.1979C95.1832 38.1979 93.7859 36.7359 93.7859 34.9323C93.7859 33.1288 95.1832 31.6668 96.9069 31.6668C98.6305 31.6668 100.028 33.1288 100.028 34.9323Z" stroke="#2A94F5" stroke-miterlimit="10"/>
    <path d="M114.593 34.9323C114.593 36.7359 113.196 38.1979 111.473 38.1979C109.749 38.1979 108.352 36.7359 108.352 34.9323C108.352 33.1288 109.749 31.6668 111.473 31.6668C113.196 31.6668 114.593 33.1288 114.593 34.9323Z" stroke="#2A94F5" stroke-miterlimit="10"/>
    <path d="M129.159 34.9323C129.159 36.7359 127.762 38.1979 126.038 38.1979C124.315 38.1979 122.917 36.7359 122.917 34.9323C122.917 33.1288 124.315 31.6668 126.038 31.6668C127.762 31.6668 129.159 33.1288 129.159 34.9323Z" stroke="#2A94F5" stroke-miterlimit="10"/>
    <path d="M329.821 301.165H178.901V309.953H329.821V301.165Z" fill="#CCE9FF"/>
    <path opacity="0.75" d="M358.451 60.8885H372.298" stroke="#E0EBFC" stroke-miterlimit="10" stroke-linejoin="round"/>
    <path opacity="0.75" d="M379.004 60.8885H392.851" stroke="#E0EBFC" stroke-miterlimit="10" stroke-linejoin="round"/>
    <g opacity="0.45">
        <path opacity="0.75" d="M399.699 56.9641H397.836V58.9134H399.699V56.9641Z" fill="#89B5F4"/>
        <path opacity="0.75" d="M402.299 56.9641H400.436V58.9134H402.299V56.9641Z" fill="#89B5F4"/>
        <path opacity="0.75" d="M404.898 56.9641H403.035V58.9134H404.898V56.9641Z" fill="#89B5F4"/>
        <path opacity="0.75" d="M399.699 59.9139H397.836V61.8632H399.699V59.9139Z" fill="#89B5F4"/>
        <path opacity="0.75" d="M402.299 59.9139H400.436V61.8632H402.299V59.9139Z" fill="#89B5F4"/>
        <path opacity="0.75" d="M404.898 59.9139H403.035V61.8632H404.898V59.9139Z" fill="#89B5F4"/>
        <path opacity="0.75" d="M399.699 62.8637H397.836V64.813H399.699V62.8637Z" fill="#89B5F4"/>
        <path opacity="0.75" d="M402.299 62.8637H400.436V64.813H402.299V62.8637Z" fill="#89B5F4"/>
        <path opacity="0.75" d="M404.898 62.8637H403.035V64.813H404.898V62.8637Z" fill="#89B5F4"/>
    </g>
    <path opacity="0.45" d="M417.318 60.8886C417.318 63.6178 415.204 65.8298 412.595 65.8298C409.987 65.8298 407.873 63.6178 407.873 60.8886C407.873 58.1593 409.987 55.9473 412.595 55.9473C415.204 55.9473 417.318 58.1593 417.318 60.8886Z" fill="#89B5F4"/>
    <path d="M417.27 28.5093C417.27 29.2215 416.718 29.7981 416.039 29.7981C415.358 29.7981 414.807 29.2206 414.807 28.5093C414.807 27.7972 415.359 27.2206 416.039 27.2206C416.718 27.2198 417.27 27.7972 417.27 28.5093Z" fill="#498EF2"/>
    <path d="M417.27 34.6303C417.27 35.3425 416.718 35.919 416.039 35.919C415.358 35.919 414.807 35.3416 414.807 34.6303C414.807 33.9182 415.359 33.3416 416.039 33.3416C416.718 33.3416 417.27 33.9182 417.27 34.6303Z" fill="#498EF2"/>
    <path d="M417.27 40.7513C417.27 41.4634 416.718 42.04 416.039 42.04C415.358 42.04 414.807 41.4626 414.807 40.7513C414.807 40.04 415.359 39.4626 416.039 39.4626C416.718 39.4626 417.27 40.0391 417.27 40.7513Z" fill="#498EF2"/>
    <path d="M309.566 301.636H232.341" stroke="#2A94F5" stroke-miterlimit="10"/>
    <path d="M223.676 301.636H198.465" stroke="#2A94F5" stroke-miterlimit="10"/>
    <path opacity="0.55" d="M366.771 158.409V7.87273H142.865V216.338H324.174C330.659 228.773 343.273 237.229 357.737 237.229C378.806 237.229 395.946 219.294 395.946 197.25C395.946 178.461 383.493 162.668 366.771 158.409Z" fill="#89B5F4"/>
    <path d="M366.772 209.149L366.772 0.683289L142.865 0.683289L142.865 209.149L366.772 209.149Z" fill="white" stroke="#2A94F5" stroke-miterlimit="10"/>
    <path d="M356.111 11.8367V197.994H153.525V11.8367H356.111ZM356.931 10.9787H356.111H153.525H152.705V11.8367V197.994V198.852H153.525H356.111H356.931V197.994V11.8367V10.9787Z" fill="#2A94F5"/>
    <path d="M356.43 11.4695H153.116V184.882H356.43V11.4695Z" fill="#FFBF55"/>
    <path d="M305.982 53.3795C308.306 42.9726 302.128 32.5642 292.182 30.1319C282.236 27.6995 272.288 34.1642 269.964 44.5712C267.639 54.9782 273.818 65.3865 283.764 67.8189C293.71 70.2512 303.657 63.7865 305.982 53.3795Z" fill="#FFE292"/>
    <path d="M217.994 227.347L315.942 91.2712L402.527 227.347H217.994Z" fill="#0E538B"/>
    <path d="M100.76 231.189L224.425 59.3871L333.743 231.189H100.76Z" fill="#2A94F5"/>
    <path d="M357.738 227.894C377.708 227.894 393.897 210.955 393.897 190.06C393.897 169.164 377.708 152.225 357.738 152.225C337.768 152.225 321.579 169.164 321.579 190.06C321.579 210.955 337.768 227.894 357.738 227.894Z" fill="#FFBD58"/>
    <path d="M357.737 154.37C376.575 154.37 391.846 170.349 391.846 190.06C391.846 209.77 376.575 225.749 357.737 225.749C338.9 225.749 323.629 209.77 323.629 190.06C323.63 170.349 338.9 154.37 357.737 154.37ZM357.737 150.08C336.669 150.08 319.529 168.015 319.529 190.06C319.529 212.104 336.669 230.039 357.737 230.039C378.806 230.039 395.946 212.104 395.946 190.06C395.946 168.015 378.806 150.08 357.737 150.08Z" fill="white"/>
    <path d="M378.477 193.626L357.821 166.74L336.999 193.626H348.814V213.379H366.829V193.626H378.477Z" fill="white"/>
    <path d="M0.273132 309.953H509.363" stroke="#2A94F5" stroke-miterlimit="10"/>
</svg>
